<svg id="OBJECTS" xmlns="http://www.w3.org/2000/svg" viewBox="0 0 124.12 159.43"><defs><style>.cls-1{fill:#721121;}.cls-2{fill:#f9b655;}.cls-3{fill:#b27d3d;}.cls-4{font-size:14.1px;fill:#e6e6e6;font-family:GoodTimes, Good Times;letter-spacing:0.2em;}</style></defs><title>Mesa de trabajo 1</title><path class="cls-1" d="M67.52,134.11c3.52-4.16,6.94-8.38,10.62-12.39A2.59,2.59,0,0,0,79,120a2.37,2.37,0,0,0-.92-1.55,13.47,13.47,0,0,0-3.48-2.35,6.41,6.41,0,0,1,5.51,1,1.14,1.14,0,0,0,.78.33,1,1,0,0,0,.61-.47,58.45,58.45,0,0,0,4.14-6.28l-4.25-1a10.11,10.11,0,0,1,4.19-.5,3.82,3.82,0,0,0,1.63,0,3,3,0,0,0,1.1-.83c3.11-3.23,5.15-7.39,7.7-11.07,6.71-9.71,15.57-20.86,17.69-32.59a39.44,39.44,0,0,0-8.35-1.21,17.83,17.83,0,0,1,10-1.59,1.69,1.69,0,0,0,1.26-.14,1.56,1.56,0,0,0,.42-.63,41.87,41.87,0,0,0,2.59-7.65,27.59,27.59,0,0,0-8.75-.75,21.94,21.94,0,0,1,10-2,81.91,81.91,0,0,0,3.19-12.13c.31-2-3.16-5.14-5.91-5.6L6.2,15.08C-.49,14-.05,26.12,0,29.62a1.16,1.16,0,0,0,.16.68,1.22,1.22,0,0,0,1,.32A15.58,15.58,0,0,1,7.7,32.4a24,24,0,0,0-5,.85,1.29,1.29,0,0,0-.85.52,1.31,1.31,0,0,0-.07.73L2.48,43,13.16,46.4c-2.1,0-5.38,0-7.29,1-2.28,1.22-1.47,1.94-.81,4.57q1.61,6.42,3.69,12.71a162,162,0,0,0,8.2,20.24c2.87,5.89,6.83,11,9,17.16a3,3,0,0,0,.71,1.27,3,3,0,0,0,2.11.51l5.83-.06L29.48,106c2.67,3.47,5.47,6.86,8.43,10.09a1.67,1.67,0,0,0,.72.54,1.8,1.8,0,0,0,1.36-.43,13.82,13.82,0,0,1,7.37-2.11l-6.22,4.06c-.36.23-.76.54-.76,1,0,1.57,5.74,6.32,6.8,7.41q4.67,4.78,9.69,9.2C59.35,138,65,137,67.52,134.11Z"/><path class="cls-2" d="M91.42,29.88l-6-17.21a1.45,1.45,0,0,0-2.52,0l-7.33,9.15L63.46.73a1.45,1.45,0,0,0-2.52,0L48.82,21.82,41.5,12.66a1.45,1.45,0,0,0-2.52,0L33,29.88a1.45,1.45,0,0,0,1.26,2.18H90.16A1.45,1.45,0,0,0,91.42,29.88Z"/><path class="cls-3" d="M91.42,30.23l-.37-1a1.43,1.43,0,0,1-.89.31H34.24a1.43,1.43,0,0,1-.89-.31l-.37,1a1.45,1.45,0,0,0,1.26,2.18H90.16A1.45,1.45,0,0,0,91.42,30.23Z"/><path class="cls-3" d="M66,95.28l-3.8-5.45-3.8,5.45H47L45.94,94l9.41,13.51a4,4,0,0,0,2.94,1.42h7.82A4,4,0,0,0,69,107.49L78.46,94l-1.07,1.29Z"/><path class="cls-2" d="M97.18,54.45,81.58,39.64a2.15,2.15,0,0,0-2.86,0L63.57,53.24a2.22,2.22,0,0,1-2.89,0L45.53,39.6a2.15,2.15,0,0,0-2.86,0L27.08,54.45a3.86,3.86,0,0,0-1,3.24L32.52,87.6a2.52,2.52,0,0,0,2.35,1.9h6a3.16,3.16,0,0,1,1.15.25,1.51,1.51,0,0,0,.24.51l3.69,5.24A3.85,3.85,0,0,0,48.72,97h7.83a3,3,0,0,0,2.51-1.62l.65-1.44,2.41-4.07,2.41,4.07.65,1.44A3,3,0,0,0,67.71,97h7.83a3.85,3.85,0,0,0,2.8-1.45L82,90.26a1.51,1.51,0,0,0,.24-.51,3.16,3.16,0,0,1,1.15-.25h6a2.52,2.52,0,0,0,2.35-1.9l6.44-29.92A3.86,3.86,0,0,0,97.18,54.45Z"/><path class="cls-1" d="M60.67,89.25a3.68,3.68,0,0,0,3.12,0L74.26,83.6c.86-.46.76-.84-.21-.84H50.42c-1,0-1.07.38-.21.84Z"/><path class="cls-1" d="M36,59.65H52V67S47.44,61.13,36,59.65Z"/><path class="cls-1" d="M88.37,59.65h-16V67S77,61.13,88.37,59.65Z"/><text class="cls-4" transform="translate(4.3 156.42)">partitect</text></svg>