<svg id="OBJECTS" xmlns="http://www.w3.org/2000/svg" viewBox="0 0 124.12 159.43"><defs><style>.cls-1{fill:#721121}.cls-2{fill:#f9b655}</style></defs><path class="cls-1" d="M67.52 134.11c3.52-4.16 6.94-8.38 10.62-12.39A2.59 2.59 0 0079 120a2.37 2.37 0 00-.92-1.55 13.47 13.47 0 00-3.48-2.35 6.41 6.41 0 015.51 1 1.14 1.14 0 00.78.33 1 1 0 00.61-.47 58.45 58.45 0 004.14-6.28l-4.25-1a10.11 10.11 0 014.19-.5 3.82 3.82 0 001.63 0 3 3 0 001.1-.83c3.11-3.23 5.15-7.39 7.7-11.07 6.71-9.71 15.57-20.86 17.69-32.59a39.44 39.44 0 00-8.35-1.21 17.83 17.83 0 0110-1.59 1.69 1.69 0 001.26-.14 1.56 1.56 0 00.42-.63 41.87 41.87 0 002.59-7.65 27.59 27.59 0 00-8.75-.75 21.94 21.94 0 0110-2 81.91 81.91 0 003.19-12.13c.31-2-3.16-5.14-5.91-5.6L6.2 15.08C-.49 14-.05 26.12 0 29.62a1.16 1.16 0 00.16.68 1.22 1.22 0 001 .32A15.58 15.58 0 017.7 32.4a24 24 0 00-5 .85 1.29 1.29 0 00-.85.52 1.31 1.31 0 00-.07.73l.7 8.5 10.68 3.4c-2.1 0-5.38 0-7.29 1-2.28 1.22-1.47 1.94-.81 4.57q1.61 6.42 3.69 12.71a162 162 0 008.2 20.24c2.87 5.89 6.83 11 9 17.16a3 3 0 00.71 1.27 3 3 0 002.11.51l5.83-.06-5.12 2.2c2.67 3.47 5.47 6.86 8.43 10.09a1.67 1.67 0 00.72.54 1.8 1.8 0 001.36-.43 13.82 13.82 0 017.37-2.11l-6.22 4.06c-.36.23-.76.54-.76 1 0 1.57 5.74 6.32 6.8 7.41q4.67 4.78 9.69 9.2C59.35 138 65 137 67.52 134.11z"/><path class="cls-2" d="M91.42 29.88l-6-17.21a1.45 1.45 0 00-2.52 0l-7.33 9.15L63.46.73a1.45 1.45 0 00-2.52 0L48.82 21.82l-7.32-9.16a1.45 1.45 0 00-2.52 0L33 29.88a1.45 1.45 0 001.26 2.18h55.9a1.45 1.45 0 001.26-2.18z"/><path d="M91.42 30.23l-.37-1a1.43 1.43 0 01-.89.31H34.24a1.43 1.43 0 01-.89-.31l-.37 1a1.45 1.45 0 001.26 2.18h55.92a1.45 1.45 0 001.26-2.18zM66 95.28l-3.8-5.45-3.8 5.45H47L45.94 94l9.41 13.51a4 4 0 002.94 1.42h7.82a4 4 0 002.89-1.44L78.46 94l-1.07 1.29z" fill="#b27d3d"/><path class="cls-2" d="M97.18 54.45l-15.6-14.81a2.15 2.15 0 00-2.86 0l-15.15 13.6a2.22 2.22 0 01-2.89 0L45.53 39.6a2.15 2.15 0 00-2.86 0L27.08 54.45a3.86 3.86 0 00-1 3.24l6.44 29.91a2.52 2.52 0 002.35 1.9h6a3.16 3.16 0 011.15.25 1.51 1.51 0 00.24.51l3.69 5.24a3.85 3.85 0 002.77 1.5h7.83a3 3 0 002.51-1.62l.65-1.44 2.41-4.07 2.41 4.07.65 1.44A3 3 0 0067.71 97h7.83a3.85 3.85 0 002.8-1.45L82 90.26a1.51 1.51 0 00.24-.51 3.16 3.16 0 011.15-.25h6a2.52 2.52 0 002.35-1.9l6.44-29.92a3.86 3.86 0 00-1-3.23z"/><path class="cls-1" d="M60.67 89.25a3.68 3.68 0 003.12 0l10.47-5.65c.86-.46.76-.84-.21-.84H50.42c-1 0-1.07.38-.21.84zM36 59.65h16V67s-4.56-5.87-16-7.35zm52.37 0h-16V67s4.63-5.87 16-7.35z"/><text transform="translate(4.3 156.42)" font-size="14.1" fill="#e6e6e6" font-family="GoodTimes,Good Times" letter-spacing=".2em">partitect</text></svg>